# AST/ASF file generated using VICON BodyLanguage
# -----------------------------------------------
:version 1.10
:name VICON
:units
  mass 1.0
  length 0.45
  angle deg
:documentation
   .ast/.asf automatically generated from VICON data using
   VICON BodyBuilder and BodyLanguage model FoxedUp or BRILLIANT.MOD
:root
   order TX TY TZ RX RY RZ
   axis XYZ
   position 0 0 0  
   orientation 0 0 0 
:bonedata
  begin
     id 1 
     name lhipjoint
     direction 0.521452 -0.77106 0.36545 
     length 2.0933 
     axis 0 0 0  XYZ
  end
  begin
     id 2 
     name lfemur
     direction 0.34202 -0.939693 0  
     length 6.83441  
     axis 0 0 20  XYZ
    dof rx ry rz
    limits (-160.0 20.0)
           (-70.0 70.0)
           (-60.0 70.0)
  end
  begin
     id 3 
     name ltibia
     direction 0.34202 -0.939693 0   
     length 7.28749   
     axis 0 0 20   XYZ
    dof rx
    limits (-10.0 170.0)
  end
  begin
     id 4 
     name lfoot
     direction 0.100608 -0.276418 0.955757   
     length 1.52195   
     axis -90 7.62852e-016 20   XYZ
    dof rx rz
    limits (-45.0 90.0)
           (-70.0 20.0)
  end
  begin
     id 5 
     name ltoes
     direction 1.53558e-011 -4.21907e-011 1   
     length 0.770459   
     axis -90 7.62852e-016 20   XYZ
    dof rx
    limits (-90.0 20.0)
  end
  begin
     id 6 
     name rhipjoint
     direction -0.488071 -0.788702 0.373812   
     length 2.04648  
     axis 0 0 0  XYZ 
  end
  begin
     id 7 
     name rfemur
     direction -0.34202 -0.939693 0   
     length 6.92583   
     axis 0 0 -20   XYZ
    dof rx ry rz
    limits (-160.0 20.0)
           (-70.0 70.0)
           (-70.0 60.0)
  end
  begin
     id 8 
     name rtibia
     direction -0.34202 -0.939693 0   
     length 7.41043   
     axis 0 0 -20   XYZ
    dof rx
    limits (-10.0 170.0)
 end
 begin
     id 9 
     name rfoot
     direction -0.0784433 -0.215521 0.973343   
     length 1.67708  
     axis -90 -7.62852e-016 -20   XYZ
    dof rx rz
    limits (-45.0 90.0)
           (-20.0 70.0)
  end
  begin
     id 10 
     name rtoes
     direction -1.53551e-011 -4.21842e-011 1   
     length 0.849787   
     axis -90 -7.62852e-016 -20   XYZ
    dof rx
    limits (-90.0 20.0)
  end
  begin
     id 11 
     name lowerback
     direction -0.0122332 0.997575 -0.0685192   
     length 1.98724   
     axis 0 0 0   XYZ
    dof rx ry rz
    limits (-20.0 45.0)
           (-30.0 30.0)
           (-30.0 30.0)
  end
  begin
     id 12 
     name upperback
     direction 0.0182347 0.999724 -0.0148421   
     length 1.99029   
     axis 0 0 0   XYZ
    dof rx ry rz
    limits (-20.0 45.0)
           (-30.0 30.0)
           (-30.0 30.0)
  end
  begin
     id 13 
     name thorax
     direction 0.0242908 0.99956 0.0170184   
     length 1.99573   
     axis 0 0 0   XYZ
    dof rx ry rz
    limits (-20.0 45.0)
           (-30.0 30.0)
           (-30.0 30.0)
  end
  begin
     id 14 
     name lowerneck
     direction 0.0654488 0.985533 0.156338   
     length 1.4285   
     axis 0 0 0   XYZ
    dof rx ry rz
    limits (-20.0 45.0)
           (-30.0 30.0)
           (-30.0 30.0)
  end
  begin
     id 15 
     name upperneck
     direction -0.02953 0.998556 -0.0448842   
     length 1.44709   
     axis 0 0 0   XYZ
    dof rx ry rz
    limits (-20.0 45.0)
           (-30.0 30.0)
           (-30.0 30.0)
  end
  begin
     id 16
     name head
     direction -0.0155588 0.999386 -0.0314063  
     length 1.44689  
     axis 0 0 0   XYZ
    dof rx ry rz
    limits (-20.0 45.0)
           (-30.0 30.0)
           (-30.0 30.0)
  end
  begin
     id 17 
     name lclavicle
     direction 0.968229 0.236071 -0.0824755  
     length 3.60593  
     axis 0 0 0   XYZ
    dof ry rz
    limits (-20.0 10.0)
           (0.0 20.0)
  end
  begin
     id 18 
     name lhumerus
     direction 1 -4.48968e-011 7.8138e-029   
     length 5.06035   
     axis 180 -30 -90   XYZ
    dof rx ry rz
    limits (-60.0 90.0)
           (-90.0 90.0)
           (-90.0 90.0)
  end
  begin
     id 19
     name lradius
     direction 1 -4.48967e-011 9.02887e-028   
     length 3.1478   
     axis 180 -30 -90   XYZ
    dof rx
    limits (-10.0 170.0)
  end
  begin
     id 20
     name lwrist
     direction 1 -4.48961e-011 7.20928e-028   
     length 1.5739   
     axis -5.52449e-016 90 90   XYZ
    dof ry
    limits (-180.0 0.0)
 end
  begin
     id 21 
     name lhand
     direction 1 -4.48972e-011 1.44186e-027   
     length 0.606747   
     axis -9.20027e-016 90 90   XYZ
    dof rx rz
    limits (-90.0 90.0)
           (-45.0 45.0)
  end
  begin
     id 22 
     name lfingers
     direction 1 -4.48943e-011 2.88371e-027   
     length 0.489175   
     axis -1.84005e-015 90 90   XYZ
    dof rx
    limits (0.0 90.0)
  end
  begin
     id 23
     name lthumb
     direction 0.707107 -6.34917e-011 0.707107   
     length 0.70236   
     axis -90 45 2.85299e-015   XYZ
    dof rx rz
    limits (-45.0 45.0)
           (-45.0 45.0)
  end
  begin
     id 24 
     name rclavicle
     direction -0.978165 0.207816 0.0022268   
     length 3.35425  
     axis 0 0 0   XYZ 
    dof ry rz
    limits (-10.0 20.0)
           (-20.0 0.0)
  end
  begin
     id 25 
     name rhumerus
     direction -1 -4.48964e-011 -4.02159e-027  
     length 5.12273   
     axis 180 30 90   XYZ
    dof rx ry rz
    limits (-90.0 60.0)
           (-90.0 90.0)
           (-90.0 90.0)
  end
  begin
     id 26 
     name rradius
     direction -1 -4.48966e-011 1.62746e-027   
     length 3.422   
     axis 180 30 90   XYZ
    dof rx
    limits (-10.0 170.0)
  end
  begin
     id 27 
     name rwrist
     direction -1 -4.4896e-011 7.20928e-028   
     length 1.711   
     axis -5.52449e-016 -90 -90   XYZ
    dof ry
    limits (-180.0 0.0)
  end
  begin
     id 28
     name rhand
     direction -1 -4.48979e-011 1.44186e-027   
     length 0.704599   
     axis -9.20027e-016 -90 -90   XYZ
    dof rx rz
    limits (-90.0 90.0)
           (-45.0 45.0)
  end
  begin
     id 29
     name rfingers
     direction -1 -4.48962e-011 2.88371e-027   
     length 0.568066   
     axis -1.84005e-015 -90 -90   XYZ
    dof rx
    limits (0.0 90.0)
  end
  begin
     id 30
     name rthumb
     direction -0.707107 -6.34949e-011 0.707107   
     length 0.815633   
     axis -90 -45 -2.85299e-015   XYZ
    dof rx rz
    limits (-45.0 45.0)
           (-45.0 45.0)
  end
:hierarchy
  begin
    root lhipjoint rhipjoint lowerback
    lhipjoint lfemur
    lfemur ltibia
    ltibia lfoot
    lfoot ltoes
    rhipjoint rfemur
    rfemur rtibia
    rtibia rfoot
    rfoot rtoes
    lowerback upperback
    upperback thorax
    thorax lowerneck lclavicle rclavicle
    lowerneck upperneck
    upperneck head
    lclavicle lhumerus
    lhumerus lradius
    lradius lwrist
    lwrist lhand lthumb
    lhand lfingers
    rclavicle rhumerus
    rhumerus rradius
    rradius rwrist
    rwrist rhand rthumb
    rhand rfingers
  end

#!OML:ASF E:\id_vita\Project 1\Capture day 1\Session 1\Male1.ASF
:FULLY-SPECIFIED
:DEGREES
291
root 15.3818 16.0693 2.05164 163.052 -75.7946 -156.348
lowerback 1.36881 -1.78694 3.07605
upperback 0.0358306 -2.33657 0.874484
thorax -0.816431 -1.18187 -0.776125
lowerneck -7.81927 -3.05197 -0.208024
upperneck -7.006 -4.39845 -1.34275
head -0.899159 -2.31046 -0.436077
rclavicle 6.84813e-014 -1.19271e-014
rhumerus -27.4293 1.86417 -87.1657
rradius 38.53
rwrist -2.8976
rhand -23.2617 39.119
rfingers 7.12502
rthumb 3.19033 9.16308
lclavicle 6.84813e-014 -1.19271e-014
lhumerus -54.6248 45.8083 44.6541
lradius 11.1595
lwrist -34.799
lhand -13.3747 45.4822
lfingers 7.12502
lthumb 12.732 75.074
rfemur 11.2007 6.22733 29.2153
rtibia 0.479813
rfoot -14.2364 -0.629436
rtoes -2.6713
lfemur -37.7592 -4.06972 -10.7181
ltibia 24.8782
lfoot -13.5789 2.98826
ltoes 46.7428
292
root 15.231 16.0517 2.04768 163.428 -75.6171 -156.894
lowerback 1.51349 -1.79774 3.03629
upperback 0.136516 -2.34834 0.837371
thorax -0.794635 -1.18639 -0.788786
lowerneck -8.20316 -2.98077 -0.841178
upperneck -6.82646 -4.23458 -0.866215
head -0.757564 -2.21938 -0.195275
rclavicle 3.46382e-014 -2.06736e-014
rhumerus -27.2383 1.84442 -87.2333
rradius 38.4732
rwrist -2.74058
rhand -23.1003 39.2642
rfingers 7.12502
rthumb 3.34625 9.31073
lclavicle 3.46382e-014 -2.06736e-014
lhumerus -55.7847 46.3228 43.2109
lradius 11.1295
lwrist -36.1504
lhand -12.0737 45.9412
lfingers 7.12502
lthumb 13.9859 75.4507
rfemur 12.266 6.45118 29.1348
rtibia -1.90833e-014
rfoot -14.0932 -0.618236
rtoes -2.76712
lfemur -37.6506 -4.40377 -10.5363
ltibia 24.5826
lfoot -14.0515 3.95409
ltoes 46.9428
293
root 15.0784 16.0329 2.04602 163.399 -75.2918 -156.918
lowerback 1.49199 -1.74057 3.25995
upperback 0.245515 -2.27269 0.776867
thorax -0.679177 -1.14687 -0.980276
lowerneck -8.78264 -2.58212 -1.74061
upperneck -5.79755 -3.54968 -0.0274841
head -0.318957 -1.85198 0.194362
rclavicle 1.51573e-014 -1.59028e-015
rhumerus -27.0814 1.63823 -87.3396
rradius 38.4203
rwrist -2.57704
rhand -23.0376 39.6547
rfingers 7.12502
rthumb 3.40676 9.70218
lclavicle 1.51573e-014 -1.59028e-015
lhumerus -57.7318 47.6 40.3563
lradius 10.9291
lwrist -38.7723
lhand -11.7696 45.5548
lfingers 7.12502
lthumb 14.2791 75.0438
rfemur 12.9473 6.79624 29.1983
rtibia -3.18055e-015
rfoot -14.2096 -0.658517
rtoes -2.22434
lfemur -37.5228 -4.31081 -10.3951
ltibia 24.4408
lfoot -14.4621 4.7292
ltoes 46.43
294
root 14.9265 16.0173 2.04393 164.296 -74.9276 -157.856
lowerback 1.58426 -1.62805 3.26964
upperback 0.153987 -2.11568 0.653442
thorax -0.823316 -1.07085 -1.1112
lowerneck -8.30979 -2.64221 -1.72717
upperneck -6.1447 -3.64761 -0.0513261
head -0.499845 -1.89978 0.193248
rclavicle -1.94809e-014 -5.96354e-015
rhumerus -27.4065 1.70119 -87.4991
rradius 38.6541
rwrist -2.76132
rhand -23.076 39.5832
rfingers 7.12502
rthumb 3.36967 9.63012
lclavicle -1.94809e-014 -5.96354e-015
lhumerus -59.7123 48.3983 37.6564
lradius 10.7061
lwrist -40.7152
lhand -11.7596 45.4446
lfingers 7.12502
lthumb 14.2887 74.933
rfemur 13.5648 7.25587 29.0087
rtibia -1.59028e-014
rfoot -14.0791 -0.746644
rtoes -3.13611
lfemur -37.3444 -4.03291 -10.5883
ltibia 24.4636
lfoot -14.6851 5.64695
ltoes 45.9539
295
root 14.7772 15.9971 2.0371 165.506 -74.6151 -159.172
lowerback 1.80425 -1.57323 2.96477
upperback 0.04721 -2.03637 0.605373
thorax -1.04378 -1.03345 -0.983775
lowerneck -8.11042 -2.65921 -1.65157
upperneck -6.23496 -3.69131 -0.35198
head -0.565893 -1.92258 0.0935959
rclavicle -1.09829e-014 1.23246e-014
rhumerus -27.8065 2.17395 -87.6382
rradius 38.9636
rwrist -3.10136
rhand -23.146 39.1586
rfingers 7.12502
rthumb 3.3021 9.20446
lclavicle -1.09829e-014 1.23246e-014
lhumerus -61.1314 48.6802 35.9548
lradius 10.5931
lwrist -41.7703
lhand -11.6717 45.6161
lfingers 7.12502
lthumb 14.3733 75.0984
rfemur 14.2805 7.67924 28.7323
rtibia 3.81667e-014
rfoot -13.9395 -0.890949
rtoes -5.07378
lfemur -37.0755 -3.37615 -11.1116
ltibia 24.6436
lfoot -14.2509 6.04284
ltoes 45.5156
296
root 14.6262 15.9759 2.02923 166.2 -74.4581 -159.968
lowerback 1.89162 -1.58781 2.74156
upperback 0.0520647 -2.05713 0.56732
thorax -1.08209 -1.0429 -0.894954
lowerneck -8.14756 -2.61801 -1.42482
upperneck -6.63119 -3.68875 -0.66856
head -0.691318 -1.93148 -0.0342733
rclavicle 2.60905e-014 1.03368e-014
rhumerus -28.0209 2.36971 -87.7555
rradius 39.1227
rwrist -3.2193
rhand -23.325 38.8745
rfingers 7.12502
rthumb 3.1292 8.91776
lclavicle 2.60905e-014 1.03368e-014
lhumerus -62.676 49.2549 33.8952
lradius 10.4278
lwrist -43.1906
lhand -11.4916 45.8589
lfingers 7.12502
lthumb 14.5469 75.3289
rfemur 14.9881 7.91657 28.5378
rtibia 5.40694e-014
rfoot -13.6936 -0.903888
rtoes -6.02035
lfemur -36.8456 -2.48111 -11.748
ltibia 24.9941
lfoot -13.5988 5.64565
ltoes 45.4337
297
root 14.471 15.9584 2.02348 167.125 -74.3511 -160.93
lowerback 1.83971 -1.57105 2.55258
upperback 0.0280433 -2.03986 0.472579
thorax -1.07385 -1.03314 -0.888072
lowerneck -8.23434 -2.7625 -1.3465
upperneck -6.39163 -3.87834 -0.755302
head -0.607331 -2.02693 -0.0801153
rclavicle 1.82882e-014 -9.93923e-015
rhumerus -28.2705 2.098 -87.7947
rradius 39.1219
rwrist -3.06985
rhand -23.3884 38.8505
rfingers 7.12502
rthumb 3.06803 8.89286
lclavicle 1.82882e-014 -9.93923e-015
lhumerus -65.6426 50.5173 29.8117
lradius 10.0492
lwrist -46.0929
lhand -11.4123 45.913
lfingers 7.12502
lthumb 14.6233 75.3774
rfemur 14.6969 8.13005 28.227
rtibia 1.84906
rfoot -14.179 -1.09291
rtoes -6.46619
lfemur -36.688 -1.38852 -12.6024
ltibia 25.5487
lfoot -12.7148 4.82993
ltoes 45.1269
298
root 14.312 15.9388 2.0178 167.886 -74.0513 -161.72
lowerback 1.67201 -1.47914 2.47987
upperback 0.104904 -1.92573 0.37299
thorax -0.898162 -0.973224 -0.95894
lowerneck -8.19374 -2.82139 -1.39347
upperneck -6.69402 -3.96527 -0.599314
head -0.701957 -2.07237 -0.0233028
rclavicle -1.75427e-014 -6.75868e-015
rhumerus -28.1245 1.57428 -87.7942
rradius 38.625
rwrist -2.75197
rhand -23.3367 39.056
rfingers 7.12502
rthumb 3.11791 9.09909
lclavicle -1.75427e-014 -6.75868e-015
lhumerus -64.9956 50.5163 30.3612
lradius 9.72288
lwrist -45.8357
lhand -11.6108 46.3565
lfingers 7.12502
lthumb 14.4321 75.8347
rfemur 14.0013 8.51275 28.0171
rtibia 4.55565
rfoot -14.9711 -1.43494
rtoes -8.2416
lfemur -36.4626 -0.0597537 -13.4015
ltibia 26.2652
lfoot -11.5221 3.86475
ltoes 45.2993
299
root 14.1459 15.9237 2.01639 168.608 -73.8912 -162.533
lowerback 1.48483 -1.46344 2.44621
upperback 0.205033 -1.91306 0.233393
thorax -0.693914 -0.963674 -1.09031
lowerneck -7.94749 -2.80553 -1.33322
upperneck -7.17461 -3.97551 -0.600463
head -0.889815 -2.08125 -0.0239484
rclavicle 6.43068e-014 1.90833e-014
rhumerus -27.9018 1.23138 -87.8625
rradius 37.9148
rwrist -2.45243
rhand -23.4235 39.2152
rfingers 7.12502
rthumb 3.03414 9.25704
lclavicle 6.43068e-014 1.90833e-014
lhumerus -64.6221 50.4361 30.6997
lradius 9.59737
lwrist -45.4673
lhand -12.0191 46.6821
lfingers 7.12502
lthumb 14.0386 76.188
rfemur 13.738 8.75806 27.7398
rtibia 6.51861
rfoot -15.3355 -1.54643
rtoes -9.59963
lfemur -36.2625 1.06283 -14.2251
ltibia 27.0654
lfoot -9.65091 3.13814
ltoes 44.0646
300
root 13.978 15.923 2.01821 169.66 -73.9796 -163.614
lowerback 1.40176 -1.54583 2.25518
upperback 0.107203 -2.02637 0.135384
thorax -0.748776 -1.02079 -1.08188
lowerneck -7.67547 -2.82137 -1.17664
upperneck -7.3007 -4.03047 -0.964872
head -0.983121 -2.1092 -0.154269
rclavicle 3.0911e-014 1.66979e-014
rhumerus -28.2255 1.24601 -87.9011
rradius 37.6355
rwrist -2.35143
rhand -23.4751 39.0134
rfingers 7.12502
rthumb 2.98424 9.05453
lclavicle 3.0911e-014 1.66979e-014
lhumerus -64.4631 50.3243 30.9265
lradius 9.2618
lwrist -45.0856
lhand -12.6802 47.0115
lfingers 7.12502
lthumb 13.4014 76.5605
rfemur 13.4091 8.7921 27.2585
rtibia 8.38079
rfoot -15.4565 -1.18452
rtoes -7.86999
lfemur -36.3264 1.75684 -15.0796
ltibia 27.8977
lfoot -7.61136 2.67343
ltoes 41.0489
